<svg xmlns="http://www.w3.org/2000/svg" width="56" height="56" viewBox="0 0 56 56" fill="none">
  <rect width="56" height="56" rx="8" fill="#f3f4f6"/>
  <path d="M28 16C21.373 16 16 21.373 16 28C16 34.627 21.373 40 28 40C34.627 40 40 34.627 40 28C40 21.373 34.627 16 28 16ZM28 18C33.523 18 38 22.477 38 28C38 33.523 33.523 38 28 38C22.477 38 18 33.523 18 28C18 22.477 22.477 18 28 18Z" fill="#d1d5db"/>
  <path d="M28 22C24.686 22 22 24.686 22 28C22 31.314 24.686 34 28 34C31.314 34 34 31.314 34 28C34 24.686 31.314 22 28 22Z" fill="#9ca3af"/>
</svg>
